<svg id="Capa_1" enable-background="new 0 0 502.667 502.667" height="512" viewBox="0 0 502.667 502.667" width="512" xmlns="http://www.w3.org/2000/svg"><g><path d="m274.266 98.541 4.678 2.396 23.836 12.209v-91.47c0-6.93-8.215-10.577-13.356-5.93l-25.194 22.779c4.33 23.015 6.893 42.881 8.272 59.792z"/><path d="m443.555 291.402-43.255-46.372c-1.919-2.057-3.391-4.461-4.331-7.07l-16.379-45.48c-1.784-4.952-5.452-9.076-10.27-11.544l-104.053-53.298s-8.519-1.083-21.43-2.611c-.689-41.445-9.643-86.568-16.128-114.12-2.622-11.137-15.411-14.673-22.538-6.236-7.054 8.35-12.526 13.792-15.93 23.518-5.632 16.514-12.577 47.855-5.328 90.373-.002 0-.005 0-.007-.001 2.188 12.835 5.664 26.684 10.867 41.455l-28.296 9.967c-13.047-37.043-16.573-69.158-15.66-95.248.001-.033.002-.067.003-.101.062-1.761.144-3.496.246-5.202-11.804 15.539-22.643 31.69-30.658 47.847-32.907 11.203-69.576 63.34-69.576 63.34v322.047h189.779c0-46.749 71.224-91.42 71.224-91.42l49.999 1.893c19.9.753 38.625-9.032 48.756-25.48l36.724-59.623c7.204-11.692 5.683-26.513-3.759-36.634zm-116.083-85.028 21.213 21.213-20.04 20.04 20.299 20.3-21.213 21.213-41.512-41.513zm-117.643 185.253-6.334-29.324 113.797-24.582-67.757-3.432 1.518-29.961 112.165 5.681-.933 18.417 6.246 28.918z"/></g></svg>